# xmcd
#
# Track frame offsets:
# 150
# 15035
# 34152
# 49377
# 65190
# 82595
# 130585
# 153792
# 166857
# 180390
# 196935
# 219400
# 240345
# 253067
# 275140
#
# Disc length: 3952 seconds
#
# Revision: 0
# Processed by: cddbd v1.4PL0 Copyright (c) Steve Scherf et al.
# Submitted via: MacMP3 Pro 5.0 (http://mp3.act2.co.jp/)
#
DISCID=ba0f6e0f
DTITLE=CAROLYN LEONHART - ÂN«?Îz«ß«?«¥
DYEAR=1900
DGENRE=
TTITLE0=CHEEK TO CHEEK
TTITLE1=BABY,WON'T YOU PLEASE COME HOME
TTITLE2=NEW YORK STATE OF MIND
TTITLE3=WHEN I THINK ABOUT LOVE
TTITLE4=GLAD TO BE UNHAPPY
TTITLE5=Medley (3 Songs) -
TTITLE6=SAY IT ISN'T SO
TTITLE7=YOU WAN'T SEE ME CRY
TTITLE8=I SEE YOU
TTITLE9=I'M OLD FASHIONED
TTITLE10=WHEN THE SUN COMES OUT
TTITLE11=ILL WIND
TTITLE12=THOU SWELL
TTITLE13=I GOTTA RIGHT TO SING THE BLUES
TTITLE14=COME SUNDAY
EXTD=
EXTT0=
EXTT1=
EXTT2=
EXTT3=
EXTT4=
EXTT5=
EXTT6=
EXTT7=
EXTT8=
EXTT9=
EXTT10=
EXTT11=
EXTT12=
EXTT13=
EXTT14=
PLAYORDER=
